<?xml version="1.0" encoding="utf-8"?>
<!-- Generator: Adobe Illustrator 16.0.0, SVG Export Plug-In . SVG Version: 6.00 Build 0)  -->
<!DOCTYPE svg PUBLIC "-//W3C//DTD SVG 1.1//EN" "http://www.w3.org/Graphics/SVG/1.1/DTD/svg11.dtd">
<svg version="1.1" id="Layer_1" xmlns="http://www.w3.org/2000/svg" xmlns:xlink="http://www.w3.org/1999/xlink" x="0px" y="0px"
	 width="150px" height="150px" viewBox="0 0 150 150" enable-background="new 0 0 150 150" xml:space="preserve">
<path fill="#FFBE6C" d="M32.81,78.948c0,0-7.568-16.649,4.541-28c0,0,9.839-6.055,20.434-1.514s-0.699,5.843-0.699,5.843
	L49.46,66.084L32.81,78.948"/>
<path fill="#5998C1" d="M1,107.657c0,0,62.083-47.628,63.596-78.657l11.353,21.948l7.567-3.784l13.512,17.58
	c0,0,24.428,1.922,29.627,7.395c0,0,16.648,3.783,21.191-2.271c0,0-5.299,6.812-21.191,5.298c0,0-18.164-8.324-27.246-5.298
	L82.002,53.975l-9.335,4.914l-8.304-14.447L58.75,62.128l-1.664-6.852L45.055,79.441l0.204-3.712
	C45.259,75.729,20.651,106.094,1,107.657z"/>
<polygon fill="#5998C1" points="90.328,57.759 106.219,43.379 119.842,68.354 116.078,69.111 105.502,51.705 105.502,58.516 
	101.697,53.975 93.363,60.029 "/>
<path fill="#90CD94" d="M44.163,91.058c0,0,15.515-21.19,14.001-25.731c0,0,6.055-4.541,6.055-12.108c0,0,3.783,6.812,9.081,8.325
	c0,0,6.812-0.757,7.568-4.541c0,0,18.92,24.218,29.516,24.218c0,0-6.811,2.271-11.869,3.065c-2.098,0.329-3.895,0.405-4.781-0.039
	c0,0-2.27-3.026-3.783-6.811l6.055-0.746c0,0-8.324-2.17-8.324-4.532h3.025l-9.082-8.334l-5.295,10.211c0,0,3.783,0.376,4.918-1.137
	c0,0-1.891,5.675-4.164,6.053c0,0,4.164,1.134,5.678-0.759l-3.783,7.569c0,0-9.083-1.893-9.839-3.406l2.648-1.513
	c0,0-4.918-1.135-4.918-2.65l2.649-0.377l-4.164-2.649l3.028-1.135l-5.298-5.682l-3.405,7.942h2.271l-3.027,3.788l3.027-0.375
	l-3.406,4.92c0,0,2.27,0.38,3.406-0.378l-1.136,2.649L44.163,91.058z"/>
<path fill="#FFF0DD" d="M29.783,119.438l8.704-3.026l-3.405-2.271c-13.244-10.596,0-12.108,0-12.108
	c-1.892-0.38-1.514,1.892-1.514,1.892c-1.135,7.189,16.271,9.838,16.271,9.838l9.082-4.919c-15.515-1.135-15.515-7.567-15.515-7.567
	c1.135-9.461,46.922-14.38,46.922-14.38c49.947,1.893,58.273-12.109,58.273-12.109c-10.596,11.353-60.166,7.568-60.166,7.568
	c-53.354,2.649-78.329,29.517-78.329,29.517c0.378,5.296,10.217,7.188,10.217,7.188L29.783,119.438z"/>
<path fill="#FFBE6C" d="M20.702,120.951c0,0-13.622,1.136-14.001-7.567C6.701,113.384,7.836,118.303,20.702,120.951z"/>
<path fill="#FFBE6C" d="M46.812,101.652c0,0,19.677-12.486,50.327-12.486C97.139,89.166,69.137,92.95,46.812,101.652z"/>
</svg>
